<svg xmlns="http://www.w3.org/2000/svg" version="1.1" xmlns:xlink="http://www.w3.org/1999/xlink" xmlns:svgjs="http://svgjs.dev/svgjs" width="100%" height="100%" viewBox="0 0 1000 600"><rect width="1000" height="600" x="0" y="0" fill="white"/><g><circle r="166.66666666666666" cx="361.5562082926432" cy="383.77848999390255" fill="darkorange" transform="matrix(0.6413887402452852,0,0,0.6413887402452852,0,53.848787430332095)"/><path d="M318.3301207761107 456.73495876569456L254.78234680164164 456.73495876569456L254.78234680164164 448.16353056547587L257.4218925719077 448.16353056547587Q261.93466437268506 448.16353056547587 265.7094986462913 447.2269175502202Q269.4843329198975 446.31868674754804 271.8400565643285 443.3385544262799Q274.19578020875946 440.38680431759536 274.19578020875946 434.4549218876427L274.19578020875946 434.4549218876427L274.19578020875946 333.30071624002875Q274.19578020875946 327.17015832199155 271.8400565643285 324.21840821330693Q269.4843329198975 321.23827589203887 265.7094986462913 320.33004508936665Q261.93466437268506 319.4218142866945 257.4218925719077 319.4218142866945L257.4218925719077 319.4218142866945L254.78234680164164 319.4218142866945L254.78234680164164 310.8220038738923L357.75301405459993 310.8220038738923L358.7747737076062 346.58359172910934L348.15982620137504 346.58359172910934L347.1380665483689 337.81348804080613Q346.31498238344716 330.85984595784726 342.1427971336718 325.94972318090083Q337.94222967131304 321.0396004039543 328.34904181808815 321.0396004039543L328.34904181808815 321.0396004039543L294.829648756968 321.0396004039543L294.829648756968 380.10298479022947L344.07278758935024 380.10298479022947L344.07278758935024 390.12190583220695L294.829648756968 390.12190583220695L294.829648756968 433.4331622346365Q294.829648756968 439.76239564075826 297.07184355106494 442.9412034501109Q299.3140383451619 446.1200112594635 303.2024014691022 447.14177091246967Q307.0907645930424 448.16353056547587 311.57515418123637 448.16353056547587L311.57515418123637 448.16353056547587L318.3301207761107 448.16353056547587L318.3301207761107 456.73495876569456ZM418.0368335819658 458.77847807170696L418.0368335819658 458.77847807170696Q408.04629475257184 458.77847807170696 400.38309735502537 456.73495876569456Q392.71989995747884 454.69143945968216 387.61110169244785 450.8030763357419Q382.5023034274168 446.91471321180165 379.9479042949014 441.60723945868614Q377.39350516238585 436.29976570557056 377.39350516238585 429.9705322994488L377.39350516238585 429.9705322994488Q377.39350516238585 425.883493687424 379.12482012997964 422.8182147284054Q380.8561350975735 419.7529357693868 384.1200895446766 418.02162080179295Q387.3840439917798 416.2619236216156 392.0954912806417 416.2619236216156L392.0954912806417 416.2619236216156Q392.4928422568108 424.6630585463333 395.35944572774486 432.09919824321173Q398.2260491986789 439.56372015267374 404.15793162863156 444.1616385912016Q410.08981405858424 448.7595570297295 419.68300191180913 448.7595570297295L419.68300191180913 448.7595570297295Q433.3632283770588 448.7595570297295 441.1399546249394 442.1181192851892Q448.91668087281994 435.4766815406489 448.91668087281994 423.0168902164899L448.91668087281994 423.0168902164899Q448.91668087281994 415.4672216692774 445.9365485515518 410.24489455391245Q442.98479844286726 405.02256743854736 436.1446852102424 400.5381778503535Q429.276189765034 396.0537882621596 417.24213162962764 391.14366548521315L417.24213162962764 391.14366548521315Q404.55528260480065 385.8361917320976 396.18252989266654 379.7056338140604Q387.80977718053236 373.5750758960232 383.72273856850757 365.28746982163955Q379.63569995648277 356.9998637472559 379.63569995648277 345.7605075641877L379.63569995648277 345.7605075641877Q379.63569995648277 334.12380040495043 385.4540535361014 325.8361943305668Q391.27240711572006 317.57697046876666 401.4048570080315 313.1777275183233Q411.50892468775953 308.7784845678799 424.3944492006711 308.7784845678799L424.3944492006711 308.7784845678799Q436.6555650367455 308.7784845678799 445.11346438663014 312.0424390149831Q453.5997459490984 315.3347756746697 458.1125177498757 320.5287205774512Q462.5969073380696 325.75104769281626 462.5969073380696 331.68293012276894L462.5969073380696 331.68293012276894Q462.5969073380696 338.2108390169752 458.1976643876262 341.5883223144124Q453.7984214371829 344.96580561184953 446.44742837805495 344.96580561184953L446.44742837805495 344.96580561184953Q446.44742837805495 338.60818999314426 444.318762434292 332.70468977577514Q442.1617142779456 326.77280734582246 437.16644486324856 322.8844442218822Q432.14279323596816 318.9960810979419 423.5713650357494 318.9960810979419L423.5713650357494 318.9960810979419Q411.70760017584405 318.9960810979419 405.1796912816378 325.32531450406367Q398.62340017484803 331.68293012276894 398.62340017484803 342.297877629L398.62340017484803 342.297877629Q398.62340017484803 350.4719548530496 401.60353249611603 356.09163294458375Q404.55528260480065 361.7113110361179 411.50892468775953 366.11055398656123Q418.46256677071835 370.5097969370046 430.2979494180403 375.39153750136757L430.2979494180403 375.39153750136757Q442.3603897660301 380.30166027831405 450.84667132849825 386.12001385793263Q459.33295289096645 391.96674965013483 463.8173424791604 399.5164181973473Q468.3301142799378 407.0660867445598 468.3301142799378 417.7094164633744L468.3301142799378 417.7094164633744Q468.3301142799378 430.7936164643705 462.1995563619005 439.87592449109223Q456.0689984438633 448.95823251781405 444.71611341046105 453.86835529476053Q433.3632283770588 458.77847807170696 418.0368335819658 458.77847807170696Z " fill="white" transform="matrix(0.6413887402452852,0,0,0.6413887402452852,0,53.848787430332095)"/><path d="M671.3585773979544 456.8554089770001L611.5562268081198 456.8554089770001L611.5562268081198 448.7891696388446L614.0402011738431 448.7891696388446Q618.2869960571766 448.7891696388446 621.8393464941789 447.9077593800396Q625.3916969311811 447.0530585230165 627.6085772790848 444.24857133590945Q629.8254576269884 441.4707935505844 629.8254576269884 435.8885285781523L629.8254576269884 435.8885285781523L629.8254576269884 340.69622062720515Q629.8254576269884 334.92698984229924 627.6085772790848 332.1492120569742Q625.3916969311811 329.34472486986715 621.8393464941789 328.49002401284406Q618.2869960571766 327.63532315582097 614.0402011738431 327.63532315582097L614.0402011738431 327.63532315582097L611.5562268081198 327.63532315582097L611.5562268081198 319.5423744158835L708.4579364731131 319.5423744158835L709.4194749372641 353.1962206611679L699.4301586708067 353.1962206611679L698.4686202066557 344.9430155105386Q697.6940475549785 338.39921207395554 693.7677654930287 333.7784855656745Q689.8147740292968 329.1577590573933 680.7869962269904 329.1577590573933L680.7869962269904 329.1577590573933L649.2431927224818 329.1577590573933L649.2431927224818 384.74002416567646L695.5840048142028 384.74002416567646L695.5840048142028 394.1684429947125L649.2431927224818 394.1684429947125L649.2431927224818 434.92699011400134Q649.2431927224818 440.88318671138103 651.3532354632576 443.87463971096184Q653.4632782040334 446.86609271054266 657.1224662481635 447.82763117469364Q660.7816542922936 448.7891696388446 665.0017397738452 448.7891696388446L665.0017397738452 448.7891696388446L671.3585773979544 448.7891696388446L671.3585773979544 456.8554089770001ZM776.7271674278328 456.8554089770001L722.1331501854827 456.8554089770001L722.1331501854827 448.7891696388446L724.6171245512061 448.7891696388446Q728.8639194345395 448.7891696388446 732.4162698715418 447.9077593800396Q735.968620308544 447.0530585230165 738.1855006564476 444.24857133590945Q740.4023810043512 441.4707935505844 740.4023810043512 435.8885285781523L740.4023810043512 435.8885285781523L740.4023810043512 374.93767371169287Q740.4023810043512 369.16844292678695 738.1855006564476 366.3639557396799Q735.968620308544 363.58617795435487 732.4162698715418 362.7314770973318Q728.8639194345395 361.85006683852674 724.6171245512061 361.85006683852674L724.6171245512061 361.85006683852674L724.0562271137846 361.85006683852674L724.0562271137846 353.7838275003713L758.4579366089641 353.7838275003713L758.4579366089641 434.92699011400134Q758.4579366089641 440.88318671138103 760.5946887515219 443.87463971096184Q762.7047314922977 446.86609271054266 766.3639195364278 447.82763117469364Q769.996398178776 448.7891696388446 774.2431930621095 448.7891696388446L774.2431930621095 448.7891696388446L776.7271674278328 448.7891696388446L776.7271674278328 456.8554089770001ZM748.6555861549806 334.55305821735163L748.6555861549806 334.55305821735163Q744.0348596466995 334.55305821735163 740.8831502364268 331.8554086373725Q737.7047314243722 329.1577590573933 737.7047314243722 322.6139556208103L737.7047314243722 322.6139556208103Q737.7047314243722 315.88318637175337 740.8831502364268 313.29237439890215Q744.0348596466995 310.7015624260509 748.6555861549806 310.7015624260509L748.6555861549806 310.7015624260509Q753.0893468507878 310.7015624260509 756.3478938681884 313.29237439890215Q759.633150287371 315.88318637175337 759.633150287371 322.6139556208103L759.633150287371 322.6139556208103Q759.633150287371 329.1577590573933 756.3478938681884 331.8554086373725Q753.0893468507878 334.55305821735163 748.6555861549806 334.55305821735163ZM836.3425522051937 456.8554089770001L781.7485349628435 456.8554089770001L781.7485349628435 448.7891696388446L784.2325093285668 448.7891696388446Q788.6662700243742 448.7891696388446 792.2186204613764 447.82763117469364Q795.7709708983787 446.86609271054266 797.8810136391544 443.87463971096184Q800.0177657817122 440.88318671138103 800.0177657817122 434.92699011400134L800.0177657817122 434.92699011400134L800.0177657817122 331.8554086373725Q800.0177657817122 326.08617785246656 797.8008854338085 323.3084000671415Q795.5840050859048 320.50391288003453 792.0316546489026 319.6492120230114Q788.4793042119004 318.76780176420635 784.2325093285668 318.76780176420635L784.2325093285668 318.76780176420635L781.7485349628435 318.76780176420635L781.7485349628435 310.7015624260509L818.073321386325 310.7015624260509L818.073321386325 434.92699011400134Q818.073321386325 440.88318671138103 820.2100735288828 443.87463971096184Q822.3201162696586 446.86609271054266 825.9793043137887 447.82763117469364Q829.6117829561368 448.7891696388446 833.8585778394703 448.7891696388446L833.8585778394703 448.7891696388446L836.3425522051937 448.7891696388446L836.3425522051937 456.8554089770001ZM894.0348600542526 458.77848590530203L894.0348600542526 458.77848590530203Q873.0946890571868 458.77848590530203 861.2624240677733 444.9430157822407Q849.4301590783598 431.0808362573974 849.4301590783598 406.0808361894719L849.4301590783598 406.0808361894719Q849.4301590783598 379.1577591932444 860.5946890232241 365.5092548826568Q871.7325095663062 351.8607505720693 892.1117831259506 351.8607505720693L892.1117831259506 351.8607505720693Q910.7816549715488 351.8607505720693 921.4387062825556 363.3992121418811Q932.1224669953443 374.93767371169287 932.1224669953443 397.82763103884264L932.1224669953443 397.82763103884264L932.1224669953443 406.66844302867526L868.0733215221761 406.66844302867526Q868.4739625489057 427.635323427523 875.6855010300379 437.143870461905Q882.8970395111704 446.6524174962869 896.7325096342317 446.6524174962869L896.7325096342317 446.6524174962869Q906.7485353024712 446.6524174962869 913.7463985693477 442.53916962186327Q920.7709712380063 438.39921234565765 924.2431934696625 433.19087899817316L924.2431934696625 433.19087899817316Q925.5786635587611 433.77848583737654 926.7271678353859 435.5145969532047Q927.9023815137926 437.25070806903284 927.9023815137926 439.7346824347563L927.9023815137926 439.7346824347563Q927.9023815137926 443.5808362913602 924.2431934696625 448.01459698716747Q920.5840054255324 452.4216482811928 913.0786635247983 455.60006709324745Q905.5733216240643 458.77848590530203 894.0348600542526 458.77848590530203ZM868.4739625489057 396.27848573548823L912.7047318998508 396.27848573548823Q912.7047318998508 380.89387030907255 907.9771677844418 371.5722890871644Q903.2763130708148 362.2507078652563 891.7378515010031 362.2507078652563L891.7378515010031 362.2507078652563Q881.1609283953422 362.2507078652563 875.2848600033084 370.9846822479611Q869.4355010130566 379.74536603244775 868.4739625489057 396.27848573548823L868.4739625489057 396.27848573548823ZM989.2271680051997 458.77848590530203L989.2271680051997 458.77848590530203Q979.8254585779457 458.77848590530203 972.6139200968133 456.8554089770001Q965.4023816156811 454.93233204869813 960.5946892949261 451.273144004568Q955.7869969741712 447.61395596043786 953.3831508137938 442.6192978272092Q950.9793046534163 437.62463969398044 950.9793046534163 431.66844309660075L950.9793046534163 431.66844309660075Q950.9793046534163 427.82228923999685 952.6085781621165 424.9376738475439Q954.2378516708168 422.05305845509093 957.3094328757435 420.4237849463907Q960.3810140806703 418.76780203590846 964.8147747764775 418.76780203590846L964.8147747764775 418.76780203590846Q965.1887064014252 426.67378496337204 967.8863559814043 433.67164823024865Q970.5840055613835 440.6962208989072 976.1662705338156 445.0231439875866Q981.7485355062478 449.35006707626604 990.7763133085541 449.35006707626604L990.7763133085541 449.35006707626604Q1003.6502449674645 449.35006707626604 1010.9686210557247 443.10006705928464Q1018.286997143985 436.8500670423033 1018.286997143985 425.1246396600177L1018.286997143985 425.1246396600177Q1018.286997143985 418.01993878601326 1015.482509956878 413.10540885813043Q1012.7047321715529 408.1908789302476 1006.2677663420977 403.9707934486961Q999.8040911108606 399.7507079671446 988.4793047553045 395.1299814588635L988.4793047553045 395.1299814588635Q976.5402021587631 390.1353233256348 968.6609286330815 384.36609254072886Q960.7816551073998 378.596861755823 956.9355012507959 370.79771643548725Q953.089347394192 362.9985711151515 953.089347394192 352.4216480094907L953.089347394192 352.4216480094907Q953.089347394192 341.4707932788823 958.5647747594962 333.6716479585466Q964.0402021248004 325.8992120399928 973.5754585609643 321.75925476378717Q983.0840055953462 317.61929748758155 995.2100740043614 317.61929748758155L995.2100740043614 317.61929748758155Q1006.7485355741732 317.61929748758155 1014.7079373052007 320.6908786925083Q1022.6940484380103 323.78916929921706 1026.940843321344 328.67698982531783Q1031.1609288028953 333.59151975320066 1031.1609288028953 339.17378472563274L1031.1609288028953 339.17378472563274Q1031.1609288028953 345.31694713548626 1027.0209715266897 348.49536594754085Q1022.8810142504841 351.6737847595955 1015.9632791889534 351.6737847595955L1015.9632791889534 351.6737847595955Q1015.9632791889534 345.69087876043386 1013.9600740553055 340.1353231897837Q1011.9301595198757 334.55305821735163 1007.2293048062487 330.8938701732215Q1002.5017406908397 327.23468212909137 994.4355013526842 327.23468212909137L994.4355013526842 327.23468212909137Q983.2709714078201 327.23468212909137 977.1278089979666 333.19087872647106Q970.9579371863312 339.17378472563274 970.9579371863312 349.16310099209016L970.9579371863312 349.16310099209016Q970.9579371863312 356.85540870529803 973.7624243734381 362.1438702581284Q976.5402021587631 367.43233181095883 983.0840055953462 371.5722890871644Q989.6278090319294 375.71224636337007 1000.7656295750115 380.3062634698692L1000.7656295750115 380.3062634698692Q1012.1171253323495 384.9269899781503 1020.1032364651591 390.4024173434545Q1028.0893475979688 395.90455411054063 1032.3094330795202 403.0092549845451Q1036.5562279628537 410.1139558585496 1036.5562279628537 420.129981526789L1036.5562279628537 420.129981526789Q1036.5562279628537 432.44301574827796 1030.7869971779478 440.9900243185089Q1025.0177663930417 449.5370328887398 1014.3340056802532 454.1577593970209Q1003.6502449674645 458.77848590530203 989.2271680051997 458.77848590530203ZM1101.540202498391 456.8554089770001L1049.8040912467116 456.8554089770001L1049.8040912467116 448.7891696388446L1051.353236550066 448.7891696388446Q1055.7869972458734 448.7891696388446 1059.3393476828755 447.82763117469364Q1062.8916981198777 446.86609271054266 1065.0017408606536 443.87463971096184Q1067.1117836014291 440.88318671138103 1067.1117836014291 434.92699011400134L1067.1117836014291 434.92699011400134L1067.1117836014291 331.8554086373725Q1067.1117836014291 326.08617785246656 1064.9216126553074 323.3084000671415Q1062.704732307404 320.50391288003453 1059.1523818704018 319.6492120230114Q1055.5733220316174 318.76780176420635 1051.353236550066 318.76780176420635L1051.353236550066 318.76780176420635L1049.8040912467116 318.76780176420635L1049.8040912467116 310.7015624260509L1085.1940486078242 310.7015624260509L1085.1940486078242 353.00925484869407Q1085.1940486078242 356.48147708035043 1085.0070827953505 360.22079332982645Q1084.8201169828767 363.96010957930247 1084.6331511704027 366.6577591592816Q1084.419475956147 369.3554087392608 1084.419475956147 369.3554087392608L1084.419475956147 369.3554087392608L1085.381014420298 369.3554087392608Q1088.2656298127508 363.58617795435487 1092.4055870889565 359.6331864906231Q1096.5455443651622 355.7069044286732 1101.8340059179927 353.7838275003713Q1107.1224674708228 351.8607505720693 1113.6662709074058 351.8607505720693L1113.6662709074058 351.8607505720693Q1130.1993906104462 351.8607505720693 1138.9600743949331 360.8084001690298Q1147.6940487776378 369.7293403642084 1147.6940487776378 389.5477164864314L1147.6940487776378 389.5477164864314L1147.6940487776378 434.92699011400134Q1147.6940487776378 440.88318671138103 1149.61712570594 443.87463971096184Q1151.5402026342417 446.86609271054266 1154.9055872587703 447.82763117469364Q1158.2709718832987 448.7891696388446 1162.5177667666321 448.7891696388446L1162.5177667666321 448.7891696388446L1163.0786642040534 448.7891696388446L1163.0786642040534 456.8554089770001L1129.6117837712432 456.8554089770001L1129.6117837712432 390.5092549505824Q1129.6117837712432 378.0092549166196 1124.9109290576162 371.09151985508896Q1120.2100743439892 364.17378479355824 1108.4579375599214 364.17378479355824L1108.4579375599214 364.17378479355824Q1100.5786640342399 364.17378479355824 1095.3970400885373 368.0199386501622Q1090.1887067410528 371.8660925067661 1087.7047323753295 378.8639557736427Q1085.1940486078242 385.88852844230126 1085.1940486078242 395.31694727133726L1085.1940486078242 395.31694727133726L1085.1940486078242 435.8885285781523Q1085.1940486078242 441.4707935505844 1087.4109289557277 444.24857133590945Q1089.6278093036312 447.0530585230165 1093.1801597406338 447.9077593800396Q1096.732510177636 448.7891696388446 1100.9793050609692 448.7891696388446L1100.9793050609692 448.7891696388446L1101.540202498391 448.7891696388446L1101.540202498391 456.8554089770001ZM1227.5017413021692 456.8554089770001L1172.8810146580372 456.8554089770001L1172.8810146580372 448.7891696388446L1175.3916984255425 448.7891696388446Q1179.6117839070941 448.7891696388446 1183.1908437458783 447.9077593800396Q1186.7431941828804 447.0530585230165 1188.9600745307841 444.24857133590945Q1191.1502454769059 441.4707935505844 1191.1502454769059 435.8885285781523L1191.1502454769059 435.8885285781523L1191.1502454769059 374.93767371169287Q1191.1502454769059 369.16844292678695 1188.9600745307841 366.3639557396799Q1186.7431941828804 363.58617795435487 1183.1908437458783 362.7314770973318Q1179.6117839070941 361.85006683852674 1175.3916984255425 361.85006683852674L1175.3916984255425 361.85006683852674L1174.8040915863394 361.85006683852674L1174.8040915863394 353.7838275003713L1209.2325104833008 353.7838275003713L1209.2325104833008 434.92699011400134Q1209.2325104833008 440.88318671138103 1211.3425532240765 443.87463971096184Q1213.4793053666342 446.86609271054266 1217.1117840089823 447.82763117469364Q1220.7709720531125 448.7891696388446 1225.0177669364462 448.7891696388446L1225.0177669364462 448.7891696388446L1227.5017413021692 448.7891696388446L1227.5017413021692 456.8554089770001ZM1199.430160029317 334.55305821735163L1199.430160029317 334.55305821735163Q1194.809433521036 334.55305821735163 1191.6310147089812 331.8554086373725Q1188.4793052987088 329.1577590573933 1188.4793052987088 322.6139556208103L1188.4793052987088 322.6139556208103Q1188.4793052987088 315.88318637175337 1191.6310147089812 313.29237439890215Q1194.809433521036 310.7015624260509 1199.430160029317 310.7015624260509L1199.430160029317 310.7015624260509Q1203.8639207251244 310.7015624260509 1207.122467742525 313.29237439890215Q1210.3810147599256 315.88318637175337 1210.3810147599256 322.6139556208103L1210.3810147599256 322.6139556208103Q1210.3810147599256 329.1577590573933 1207.122467742525 331.8554086373725Q1203.8639207251244 334.55305821735163 1199.430160029317 334.55305821735163ZM1294.6224679802644 456.8554089770001L1235.194049015377 456.8554089770001L1235.194049015377 448.7891696388446L1237.7047327828823 448.7891696388446Q1242.111784076908 448.7891696388446 1245.6908439156919 447.82763117469364Q1249.2431943526944 446.86609271054266 1251.35323709347 443.87463971096184Q1253.463279834246 440.88318671138103 1253.463279834246 434.92699011400134L1253.463279834246 434.92699011400134L1253.463279834246 362.8116053026777L1235.9686216670543 362.8116053026777L1235.9686216670543 353.7838275003713L1253.463279834246 353.7838275003713L1253.463279834246 344.16844285886145Q1253.463279834246 327.0477163166176 1262.5978952436803 317.91310090718326Q1271.7325106531143 308.77848549774893 1287.5177671062597 308.77848549774893L1287.5177671062597 308.77848549774893Q1297.5070833727173 308.77848549774893 1303.383151764751 310.5145966135771Q1309.2325107550027 312.25070772940524 1311.8233227278542 315.2154513272041Q1314.440844102487 318.206904326785 1314.440844102487 322.24002399586266L1314.440844102487 322.24002399586266Q1314.440844102487 325.712246227519 1312.4109295670573 328.11609238789646Q1310.3810150316276 330.5199385482739 1306.8286645946255 331.7485710302446Q1303.2763141576233 333.0039129139973 1298.6555876493421 333.0039129139973L1298.6555876493421 333.0039129139973Q1298.6555876493421 329.1577590573933 1297.5070833727173 325.60540862039113Q1296.3585790960924 322.0530581833889 1293.6609295161134 319.8361778354852Q1290.9632799361343 317.61929748758155 1285.9686218029055 317.61929748758155L1285.9686218029055 317.61929748758155Q1277.6887072504942 317.61929748758155 1274.6171260455676 323.97613511169084Q1271.5455448406406 330.3062633340181 1271.5455448406406 342.4323317430333L1271.5455448406406 342.4323317430333L1271.5455448406406 353.7838275003713L1298.6555876493421 353.7838275003713L1298.6555876493421 362.8116053026777L1271.5455448406406 362.8116053026777L1271.5455448406406 434.92699011400134Q1271.5455448406406 440.88318671138103 1273.6555875814165 443.87463971096184Q1275.765630322192 446.86609271054266 1279.4248183663221 447.82763117469364Q1283.0840064104523 448.7891696388446 1287.3040918920042 448.7891696388446L1287.3040918920042 448.7891696388446L1294.6224679802644 448.7891696388446L1294.6224679802644 456.8554089770001ZM1347.1331518836205 458.77848590530203L1347.1331518836205 458.77848590530203Q1332.4963997071004 458.77848590530203 1325.8724680651712 452.1545542633731Q1319.248536423242 445.50391321966214 1319.248536423242 428.97079351662165L1319.248536423242 428.97079351662165L1319.248536423242 364.7346822309797L1304.6117842467215 364.7346822309797L1304.6117842467215 357.0423745177718Q1308.084006478378 357.0423745177718 1312.3040919599298 355.60006682154534Q1316.550886843263 354.1577591253189 1319.6224680481896 350.8992121079183L1319.6224680481896 350.8992121079183Q1322.8810150655904 347.426989876262 1325.0177672081481 342.4323317430333Q1327.1278099489236 337.43767360980456 1328.4632800380223 330.11929752154435L1328.4632800380223 330.11929752154435L1337.304092027855 330.11929752154435L1337.304092027855 353.7838275003713L1362.517767310036 353.7838275003713L1362.517767310036 364.7346822309797L1337.304092027855 364.7346822309797L1337.304092027855 429.558400355825Q1337.304092027855 439.3607508098086 1341.3639210987149 443.98147731808973Q1345.3970407677925 448.57549442458884 1351.9408442043755 448.57549442458884L1351.9408442043755 448.57549442458884Q1355.38635703425 448.57549442458884 1358.2709724267029 448.2015627996413Q1361.1555878191557 447.82763117469364 1364.2271690240827 447.2400243354903L1364.2271690240827 447.2400243354903L1364.2271690240827 455.70690470037533Q1361.7431946583592 456.8554089770001 1356.7485365251305 457.81694744115106Q1351.72716899012 458.77848590530203 1347.1331518836205 458.77848590530203Z " fill="black" transform="matrix(0.6413887402452852,0,0,0.6413887402452852,0,53.848787430332095)"/></g></svg>